nColumns=19
nRows=106
DataType=double
version=3
OpenSimVersion=4.1
endheader
time	ground_force_calcn_r_vx	ground_force_calcn_r_vy	ground_force_calcn_r_vz	ground_force_calcn_r_px	ground_force_calcn_r_py	ground_force_calcn_r_pz	ground_force_calcn_r_mx	ground_force_calcn_r_my	ground_force_calcn_r_mz	ground_force_calcn_l_vx	ground_force_calcn_l_vy	ground_force_calcn_l_vz	ground_force_calcn_l_px	ground_force_calcn_l_py	ground_force_calcn_l_pz	ground_force_calcn_l_mx	ground_force_calcn_l_my	ground_force_calcn_l_mz
0.166667	-3.01714	11.5703	0.801993	0.822059	0	-0.194552	-0.359623	1.3791	0.0955922	0	0	0	0	0	0	0	0	0
0.175	-9.02216	28.2251	-1.10358	0.848815	0	-0.2947	-0.543158	1.69922	-0.0664386	0	0	0	0	0	0	0	0	0
0.183333	-21.4954	75.9899	-3.79258	0.848262	0	-0.336023	-0.473432	1.67366	-0.0835307	0	0	0	0	0	0	0	0	0
0.191667	-39.0043	186.799	-5.6014	0.853094	0	-0.352287	-0.230919	1.10591	-0.0331623	0	0	0	0	0	0	0	0	0
0.2	-58.5605	384.975	-3.14118	0.854859	0	-0.358699	0.0150841	-0.0991629	0.000809113	0	0	0	0	0	0	0	0	0
0.208333	-79.9392	643.237	6.35658	0.851724	0	-0.360805	0.21853	-1.75842	-0.017377	0	0	0	0	0	0	0	0	0
0.216667	-102.483	884.023	20.6602	0.84553	0	-0.361144	0.406817	-3.50922	-0.0820127	0	0	0	0	0	0	0	0	0
0.225	-126.982	1057.57	31.8222	0.836467	0	-0.361458	0.592341	-4.93331	-0.148443	0	0	0	0	0	0	0	0	0
0.233333	-155.581	1180.48	33.2583	0.824695	0	-0.362761	0.750921	-5.69769	-0.160524	0	0	0	0	0	0	0	0	0
0.241667	-180.431	1294.43	27.0487	0.810996	0	-0.364161	0.790067	-5.66805	-0.118441	0	0	0	0	0	0	0	0	0
0.25	-190.488	1417.16	20.7155	0.795144	0	-0.364195	0.657653	-4.8927	-0.0715195	0	0	0	0	0	0	0	0	0
0.258333	-180.739	1536.77	17.7256	0.777144	0	-0.363085	0.412389	-3.50641	-0.0404442	0	0	0	0	0	0	0	0	0
0.266667	-150.669	1634.17	14.9497	0.757532	0	-0.361913	0.154117	-1.67157	-0.0152918	0	0	0	0	0	0	0	0	0
0.275	-110.365	1696.56	8.68649	0.737548	0	-0.361002	-0.0283272	0.435454	0.00222955	0	0	0	0	0	0	0	0	0
0.283333	-72.4465	1719.72	-0.717135	0.718409	0	-0.359763	-0.110068	2.61277	-0.00108954	0	0	0	0	0	0	0	0	0
0.291667	-39.9125	1705.82	-10.6443	0.700289	0	-0.357861	-0.108564	4.63992	-0.0289529	0	0	0	0	0	0	0	0	0
0.3	-10.4531	1658.35	-19.4147	0.682518	0	-0.355682	-0.0396708	6.29363	-0.0736811	0	0	0	0	0	0	0	0	0
0.308333	17.4461	1582.55	-26.4252	0.664582	0	-0.353632	0.0812376	7.36914	-0.123049	0	0	0	0	0	0	0	0	0
0.316667	43.829	1486.33	-30.704	0.646567	0	-0.351845	0.227485	7.71447	-0.159363	0	0	0	0	0	0	0	0	0
0.325	69.8864	1377.89	-30.6072	0.628145	0	-0.350339	0.368802	7.27136	-0.161519	0	0	0	0	0	0	0	0	0
0.333333	95.7173	1261.91	-25.1182	0.609097	0	-0.349124	0.463275	6.10768	-0.121573	0	0	0	0	0	0	0	0	0
0.341667	118.607	1137.37	-15.2638	0.589704	0	-0.348287	0.461191	4.42252	-0.0593516	0	0	0	0	0	0	0	0	0
0.35	135.376	1001.95	-3.90948	0.570032	0	-0.347993	0.338858	2.50796	-0.00978578	0	0	0	0	0	0	0	0	0
0.358333	144.113	856.832	6.09759	0.550147	0	-0.348338	0.113943	0.677453	0.00482105	0	0	0	0	0	0	0	0	0
0.366667	144.399	707.055	13.4847	0.530244	0	-0.34898	-0.165163	-0.808726	-0.0154237	0	0	0	0	0	0	0	0	0
0.375	136.43	559.347	18.2339	0.510815	0	-0.349148	-0.437458	-1.79352	-0.0584662	0	0	0	0	0	0	0	0	0
0.383333	121.875	420.703	20.2732	0.492705	0	-0.348143	-0.648671	-2.23916	-0.107903	0	0	0	0	0	0	0	0	0
0.391667	103.334	297.443	19.2229	0.47643	0	-0.34569	-0.769258	-2.21429	-0.143103	0	0	0	0	0	0	0	0	0
0.4	83.1626	195.593	15.4628	0.461815	0	-0.341339	-0.794197	-1.8679	-0.147668	0	0	0	0	0	0	0	0	0
0.408333	63.1835	119.486	10.6907	0.447842	0	-0.332997	-0.736131	-1.3921	-0.124554	0	0	0	0	0	0	0	0	0
0.416667	43.8755	68.4946	6.84266	0.437309	0	-0.316507	-0.626187	-0.977549	-0.0976577	0	0	0	0	0	0	0	0	0
0.425	26.618	37.3567	4.68509	0.447482	0	-0.289348	-0.525626	-0.737684	-0.0925167	0	0	0	0	0	0	0	0	0
0.433333	13.6622	19.5823	3.78909	0.516312	0	-0.253094	-0.477071	-0.683795	-0.132311	0	0	0	0	0	0	0	0	0
0.441667	5.7002	10.3073	3.47383	0.705441	0	-0.194441	-0.434887	-0.78638	-0.26503	0	0	0	0	0	0	0	0	0
0.45	0	0	0	0	0	0	0	0	0	0	0	0	0	0	0	0	0	0
0.458333	0	0	0	0	0	0	0	0	0	0	0	0	0	0	0	0	0	0
0.466667	0	0	0	0	0	0	0	0	0	0	0	0	0	0	0	0	0	0
0.475	0	0	0	0	0	0	0	0	0	0	0	0	0	0	0	0	0	0
0.483333	0	0	0	0	0	0	0	0	0	0	0	0	0	0	0	0	0	0
0.491667	0	0	0	0	0	0	0	0	0	0	0	0	0	0	0	0	0	0
0.5	0	0	0	0	0	0	0	0	0	0	0	0	0	0	0	0	0	0
0.508333	0	0	0	0	0	0	0	0	0	-5.21672	14.4002	1.17858	0.739918	0	-0.287628	0.0905528	-0.249961	-0.0204579
0.516667	0	0	0	0	0	0	0	0	0	-17.7359	40.5091	0.306432	0.799508	0	-0.373628	0.0910156	-0.207881	-0.00157252
0.525	0	0	0	0	0	0	0	0	0	-38.7503	104.834	0.22813	0.831239	0	-0.409005	0.13788	-0.373018	-0.000811724
0.533333	0	0	0	0	0	0	0	0	0	-62.9471	234.237	2.36035	0.848672	0	-0.419342	0.19386	-0.721385	-0.00726921
0.541667	0	0	0	0	0	0	0	0	0	-80.017	433.558	7.17881	0.854147	0	-0.418959	0.212845	-1.15326	-0.0190956
0.55	0	0	0	0	0	0	0	0	0	-85.5617	656.465	12.4925	0.850268	0	-0.415669	0.199482	-1.53051	-0.0291255
0.558333	0	0	0	0	0	0	0	0	0	-86.5423	839.836	14.3252	0.841179	0	-0.414347	0.182099	-1.76715	-0.0301424
0.566667	0	0	0	0	0	0	0	0	0	-99.1436	971.296	11.7396	0.830152	0	-0.416846	0.191686	-1.87792	-0.0226976
0.575	0	0	0	0	0	0	0	0	0	-131.557	1081.52	9.59025	0.819208	0	-0.420792	0.239451	-1.96851	-0.0174555
0.583333	0	0	0	0	0	0	0	0	0	-164.462	1199.76	13.2926	0.807023	0	-0.422464	0.298085	-2.17455	-0.0240927
0.591667	0	0	0	0	0	0	0	0	0	-173.503	1328.48	22.1359	0.790514	0	-0.422025	0.337372	-2.58321	-0.0430427
0.6	0	0	0	0	0	0	0	0	0	-154.802	1449.64	30.8776	0.770038	0	-0.421883	0.341221	-3.19537	-0.0680619
0.608333	0	0	0	0	0	0	0	0	0	-120.204	1547.42	36.553	0.748483	0	-0.422752	0.306997	-3.95205	-0.0933551
0.616667	0	0	0	0	0	0	0	0	0	-83.6922	1613.4	40.5389	0.727717	0	-0.423882	0.247714	-4.77539	-0.119988
0.625	0	0	0	0	0	0	0	0	0	-49.8331	1642.62	44.7413	0.70797	0	-0.424744	0.169431	-5.58483	-0.152119
0.633333	0	0	0	0	0	0	0	0	0	-19.1163	1632.74	49.0516	0.68939	0	-0.425618	0.0736182	-6.28779	-0.188901
0.641667	0	0	0	0	0	0	0	0	0	7.63288	1586.84	52.494	0.671801	0	-0.426835	-0.0325941	-6.77618	-0.224161
0.65	0	0	0	0	0	0	0	0	0	33.1386	1514.04	54.2668	0.654431	0	-0.428156	-0.151899	-6.93997	-0.248745
0.658333	0	0	0	0	0	0	0	0	0	60.0114	1422.33	53.5325	0.636527	0	-0.429263	-0.28242	-6.69362	-0.25193
0.666667	0	0	0	0	0	0	0	0	0	87.8739	1315.37	49.5964	0.617671	0	-0.429972	-0.401453	-6.00928	-0.226582
0.675	0	0	0	0	0	0	0	0	0	114.863	1196.27	42.4615	0.598117	0	-0.430059	-0.474379	-4.94052	-0.175363
0.683333	0	0	0	0	0	0	0	0	0	138.129	1068.51	32.961	0.578489	0	-0.429406	-0.468449	-3.62373	-0.111783
0.691667	0	0	0	0	0	0	0	0	0	154.327	934.095	22.3712	0.559195	0	-0.428158	-0.372109	-2.25226	-0.0539409
0.7	0	0	0	0	0	0	0	0	0	161.675	795.16	11.9463	0.540119	0	-0.426625	-0.209302	-1.0294	-0.0154655
0.708333	0	0	0	0	0	0	0	0	0	161.996	657.59	2.71886	0.521421	0	-0.424621	-0.0298352	-0.12111	-0.00050074
0.716667	0	0	0	0	0	0	0	0	0	156.167	526.908	-4.65942	0.504169	0	-0.421761	0.111203	0.375199	-0.00331787
0.725	0	0	0	0	0	0	0	0	0	144.376	406.225	-10.0836	0.489546	0	-0.418222	0.159571	0.448977	-0.0111449
0.733333	0	0	0	0	0	0	0	0	0	127.343	299.031	-13.7	0.47748	0	-0.41479	0.0741163	0.174042	-0.00797369
0.741667	0	0	0	0	0	0	0	0	0	106.573	208.764	-15.3303	0.465242	0	-0.412104	-0.15868	-0.310838	0.0228259
0.75	0	0	0	0	0	0	0	0	0	83.9669	137.358	-14.6104	0.450037	0	-0.408967	-0.510965	-0.835864	0.0889091
0.758333	0	0	0	0	0	0	0	0	0	60.3754	84.7098	-11.8592	0.433283	0	-0.403178	-0.904192	-1.26863	0.177605
0.766667	0	0	0	0	0	0	0	0	0	38.3854	49.3237	-8.27726	0.426346	0	-0.391718	-1.23748	-1.59011	0.266845
0.775	0	0	0	0	0	0	0	0	0	21.4659	27.884	-4.99578	0.449997	0	-0.368408	-1.44031	-1.87096	0.335205
0.783333	0	0	0	0	0	0	0	0	0	10.7023	16.0483	-2.41244	0.504527	0	-0.322541	-1.46416	-2.19553	0.330039
0.791667	0	0	0	0	0	0	0	0	0	5.2295	10.3372	-0.541215	0.555979	0	-0.252854	-1.26906	-2.50855	0.131338
0.8	0	0	0	0	0	0	0	0	0	0	0	0	0	0	0	0	0	0
0.808333	0	0	0	0	0	0	0	0	0	0	0	0	0	0	0	0	0	0
0.816667	0	0	0	0	0	0	0	0	0	0	0	0	0	0	0	0	0	0
0.825	0	0	0	0	0	0	0	0	0	0	0	0	0	0	0	0	0	0
0.833333	0	0	0	0	0	0	0	0	0	0	0	0	0	0	0	0	0	0
0.841667	-3.39831	11.2724	-0.672112	0.767716	0	-0.0647349	0.181757	-0.602899	0.0359476	0	0	0	0	0	0	0	0	0
0.85	-10.1276	26.4621	-4.02245	0.810942	0	-0.215734	0.0869187	-0.227108	0.0345222	0	0	0	0	0	0	0	0	0
0.858333	-24.2952	73.4495	-9.28251	0.837934	0	-0.275511	0.00128179	-0.00387512	0.000489736	0	0	0	0	0	0	0	0	0
0.866667	-45.8912	184.096	-15.6909	0.848929	0	-0.294817	-0.0107536	0.043139	-0.00367684	0	0	0	0	0	0	0	0	0
0.875	-69.0067	379.856	-20.8953	0.849185	0	-0.302082	0.0294123	-0.161904	0.00890607	0	0	0	0	0	0	0	0	0
0.883333	-84.4479	628.78	-22.4451	0.842091	0	-0.304903	0.0838534	-0.624354	0.0222871	0	0	0	0	0	0	0	0	0
0.891667	-89.1852	857.034	-20.8367	0.831163	0	-0.305772	0.130549	-1.25453	0.0305008	0	0	0	0	0	0	0	0	0
0.9	-96.5186	1026.12	-20.067	0.819021	0	-0.305962	0.178484	-1.89752	0.0371083	0	0	0	0	0	0	0	0	0
0.908333	-119.075	1153.47	-23.3908	0.807346	0	-0.306305	0.24708	-2.39345	0.0485361	0	0	0	0	0	0	0	0	0
0.916667	-145.965	1272	-29.3637	0.79524	0	-0.306665	0.30237	-2.63497	0.0608274	0	0	0	0	0	0	0	0	0
0.925	-157.874	1394.4	-34.1796	0.779693	0	-0.306508	0.291533	-2.57494	0.0631168	0	0	0	0	0	0	0	0	0
0.933333	-146.021	1510.75	-36.8303	0.760293	0	-0.305938	0.211882	-2.19216	0.0534421	0	0	0	0	0	0	0	0	0
0.941667	-114.107	1605.28	-39.5655	0.739198	0	-0.30528	0.105342	-1.48197	0.0365263	0	0	0	0	0	0	0	0	0
0.95	-74.7232	1665.72	-44.2579	0.718667	0	-0.304472	0.0215006	-0.479289	0.0127346	0	0	0	0	0	0	0	0	0
0.958333	-37.7908	1685.68	-50.4473	0.699576	0	-0.303183	-0.0162232	0.723647	-0.0216565	0	0	0	0	0	0	0	0	0
0.966667	-5.74904	1665.31	-56.4016	0.681662	0	-0.301418	-0.00685449	1.98553	-0.0672467	0	0	0	0	0	0	0	0	0
0.975	21.7778	1609.75	-60.6146	0.664548	0	-0.299388	0.0424776	3.13981	-0.118229	0	0	0	0	0	0	0	0	0
0.983333	45.5462	1526.51	-62.4463	0.647989	0	-0.297198	0.120051	4.02356	-0.164596	0	0	0	0	0	0	0	0	0
0.991667	66.5495	1422.95	-61.937	0.631452	0	-0.295033	0.210612	4.50327	-0.196014	0	0	0	0	0	0	0	0	0
1	88.2245	1305.69	-58.9514	0.61385	0	-0.293151	0.303637	4.4937	-0.202889	0	0	0	0	0	0	0	0	0
1.00833	111.637	1179.61	-52.7546	0.594467	0	-0.291696	0.376215	3.97529	-0.177783	0	0	0	0	0	0	0	0	0
1.01667	133.015	1046.63	-42.9857	0.573796	0	-0.290669	0.382602	3.01051	-0.123643	0	0	0	0	0	0	0	0	0
1.025	147.645	906.797	-30.84	0.553035	0	-0.290049	0.283763	1.7428	-0.0592724	0	0	0	0	0	0	0	0	0
1.03333	152.998	761.656	-18.5476	0.532931	0	-0.289885	0.0741097	0.368934	-0.00898418	0	0	0	0	0	0	0	0	0
1.04167	149.557	615.657	-7.82154	0.513805	0	-0.289925	-0.219881	-0.905147	0.0114993	0	0	0	0	0	0	0	0	0
